<?xml version="1.0" encoding="utf-8"?>
<!-- Generator: Adobe Illustrator 23.0.4, SVG Export Plug-In . SVG Version: 6.00 Build 0)  -->
<svg version="1.1" id="Layer_1" xmlns="http://www.w3.org/2000/svg" xmlns:xlink="http://www.w3.org/1999/xlink" x="0px" y="0px"
	 viewBox="0 0 37.5 54.1" style="enable-background:new 0 0 37.5 54.1;" xml:space="preserve">
<style type="text/css">
	.st0{fill:#FFFFFF;}
	.st1{fill:#B9B300;}
	.st2{fill:#C7FF17;}
	.st3{fill:none;}
</style>
<path d="M18.5,54.1c-2.9,0-4.9-0.6-5-0.7c-0.4-0.1-0.9-0.3-1.3-0.5c-0.8-0.3-1.5-0.7-2.2-1.1c0,0-0.1-0.1-0.1-0.1
	c-4.7-3-7.5-8.1-7.5-13.7c0-3.5,1.2-7,3.3-9.8v-6.4C2.3,20.7,0,17.4,0,13.6c0-3.8,2.7-7.2,6.4-8.2c0.7-0.2,1.4-0.3,2.1-0.3
	c0.2,0,0.4,0,0.6,0C10.9,2,14.2,0,17.8,0c3.4,0,6.5,1.7,8.4,4.6c0.4-0.1,0.9-0.1,1.3-0.1c0.5,0,0.9,0,1.4,0.1c4.4,0.6,8,4.3,8.5,8.7
	c0.5,4.4-1.9,8.5-5.8,10.2v5c2,2.8,3.2,6.1,3.2,9.6c0,4.8-2.1,9.3-5.7,12.3l-0.1,0.1l-0.4,0.3c-0.1,0.1-0.3,0.2-0.4,0.3
	c-0.9,0.7-1.9,1.2-3,1.7c-0.5,0.2-1,0.4-1.4,0.5C21.9,53.9,20.2,54.1,18.5,54.1z"/>
<path class="st0" d="M36.4,13.4c-0.4-4-3.7-7.3-7.6-7.8c-1-0.1-2.1-0.1-3.1,0.1C24.1,2.8,21.1,1,17.8,1c-3.5,0-6.7,2.1-8.1,5.2
	c-1-0.2-2-0.1-3,0.2C3.4,7.2,1,10.2,1,13.6c0,3.6,2.3,6.7,5.7,7.4v3.5v3.7v0.5H6.5c-2,2.6-3.2,5.9-3.2,9.2c0,5.3,2.7,10.1,7.1,12.8
	c0,0,0.1,0.1,0.1,0.1c0.7,0.4,1.4,0.8,2.1,1.1c0.4,0.2,0.8,0.3,1.2,0.4c0.1,0,2,0.6,4.7,0.6c1.4,0,3-0.2,4.8-0.6
	c0.5-0.2,0.9-0.3,1.3-0.5c1-0.4,1.9-1,2.8-1.6c0.2-0.1,0.3-0.2,0.5-0.4c0.1-0.1,0.2-0.2,0.3-0.2c0,0,0.1-0.1,0.1-0.1
	c3.3-2.8,5.4-7,5.4-11.6c0-3.3-1.1-6.6-3.2-9.2v-6C34.4,21.5,36.9,17.6,36.4,13.4z"/>
<path class="st1" d="M10.5,50.9C10.5,50.9,10.5,50.9,10.5,50.9C10.5,50.9,10.5,50.9,10.5,50.9C10.5,50.9,10.5,50.9,10.5,50.9z"/>
<path d="M28.2,49.7c-0.1,0.1-0.2,0.2-0.3,0.2C28,49.9,28.1,49.8,28.2,49.7z"/>
<path class="st2" d="M27.9,50c-0.2,0.1-0.3,0.3-0.5,0.4C27.6,50.2,27.8,50.1,27.9,50z"/>
<path d="M18.3,45.5L18.3,45.5c-2.7,0.8-3.8,2.5-3.9,2.6c-0.1,0.2,0,0.4,0.2,0.4c0.2,0.1,0.5,0,0.6-0.2c0,0,1.1-1.6,3.3-2.2
	c2.2-0.6,3.9,0.2,3.9,0.2c0.2,0.1,0.5,0,0.6-0.1s0.1-0.4-0.1-0.5c0,0,0,0,0,0C22.8,45.7,20.9,44.8,18.3,45.5z"/>
<path d="M14.5,38.2l0.8,0.3c0.3,0.1,0.5-0.1,0.6-0.3c0.1-0.3-0.1-0.5-0.3-0.6L13.6,37l-0.6-0.2l0,0l-1.2-0.3
	c-0.3-0.1-0.5,0.1-0.6,0.3c-0.1,0.3,0.1,0.5,0.3,0.6l0,0l0.8,0.2c0,0,0,0.1,0,0.1c0,0.9,0.3,1.2,0.9,1.3
	C13.8,39.1,14.3,38.8,14.5,38.2z"/>
<path d="M25.1,36.5l-3.7,1c-0.3,0.1-0.4,0.3-0.3,0.6c0.1,0.3,0.3,0.4,0.6,0.3l0.8-0.3c0.2,0.6,0.5,0.9,1,0.9c0.6,0,0.9-0.4,0.9-1.3
	c0,0,0-0.1,0-0.1l0.9-0.2c0.3-0.1,0.4-0.3,0.3-0.6C25.6,36.6,25.3,36.5,25.1,36.5L25.1,36.5z"/>
<path class="st3" d="M3.3,38.4c0,0.1,0.1,0.1,0.1,0.2C3.4,38.5,3.4,38.4,3.3,38.4C3.4,38.4,3.3,38.4,3.3,38.4z"/>
<path d="M33.8,39.7c-0.4-0.2-0.8-0.4-1-0.5l-0.1,0c-0.1,0-0.2-0.1-0.2-0.1c-0.2-0.1-0.4-0.2-0.7-0.4c0,0,0,0-0.1,0
	c-0.2-0.1-0.3-0.2-0.5-0.3c-1.6-1.3-2.7-3.1-2.7-4.5c0-0.2,0-0.5,0.1-0.8c0-0.3-0.1-0.5-0.4-0.6c-1.3-0.3-2.5-0.9-3.3-1.8
	c-0.7-0.7-1.1-1.2-1.2-1.9H31v-1H6.4v1h16.1c-1.8,1.4-4.4,1.9-7.3,1.4L14.5,30c-0.2,0-0.4,0-0.5,0.2c-1.2,1.4-3.1,2.4-5.2,2.4
	c-0.1,0-0.3,0.1-0.4,0.2c-0.1,0.1-0.1,0.2-0.1,0.4c0,0.1,0,0.2,0,0.3c0,1.7-2.8,3.8-5.1,4.4c-0.3,0.1-0.4,0.3-0.4,0.6
	c0.1,0.3,0.3,0.4,0.6,0.4c2.4-0.6,5.8-2.8,5.9-5.3c2.1-0.2,4-1.1,5.2-2.5l0.4,0.1c3.1,0.6,5.9,0.1,7.9-1.4c0.3,0.6,0.7,1.1,1.3,1.7
	c0.9,0.9,2,1.6,3.4,1.9c0,0.2,0,0.3,0,0.5c0,2,1.7,4.1,3.1,5.2c0.2,0.1,0.3,0.2,0.5,0.4c0,0,0.1,0,0.1,0.1c0.3,0.2,0.6,0.4,0.9,0.5
	c0,0,0.1,0,0.2,0.1l0.1,0.1c0.2,0.1,0.6,0.3,1,0.5c0.1,0,0.1,0,0.2,0c0.2,0,0.4-0.1,0.5-0.3C34.1,40.1,34,39.8,33.8,39.7z"/>
</svg>
