<?xml version="1.0" encoding="utf-8"?>
<!-- Generator: Adobe Illustrator 23.0.4, SVG Export Plug-In . SVG Version: 6.00 Build 0)  -->
<svg version="1.1" id="Layer_1" xmlns="http://www.w3.org/2000/svg" xmlns:xlink="http://www.w3.org/1999/xlink" x="0px" y="0px"
	 viewBox="0 0 250 9" style="enable-background:new 0 0 250 9;" xml:space="preserve">
<style type="text/css">
	.st0{fill:#FFFFFF;}
</style>
<g>
	<path d="M7.7,6.9v2H1.6L0,7.2V5h1.2V3.6L0,2.3V0.1h6l1.7,1.8V4H6.6v1.8L7.7,6.9z M0.1,7.1h5.7v-2H4.7V2.2h1.2v-2H0.1v2h1.2v2.9H0.1
		V7.1z"/>
	<path d="M19.3,8.9h-5.6l-1.6-1.7V5h1.2V3.6l-1.2-1.3V0.1h6c1.1,0,2,0.3,2.8,0.9c1.1,0.8,2.7,2.4,2.7,4.1C23.6,7.5,22,8.9,19.3,8.9z
		 M18.1,0.2h-5.8v2h1.2v2.9h-1.2v2h5.9c2.1,0,3.8-1.1,3.8-3.5C21.9,1.3,20,0.2,18.1,0.2z M17.2,5.2h-0.4V2.2h0.4
		c0.8,0,1.2,0.5,1.2,1.4C18.3,4.6,18.1,5.2,17.2,5.2z"/>
	<path d="M29.9,9c-2.8,0-4.6-2.2-5.4-3.4C24.2,5.1,24,4.4,24,3.7C24,1.3,25.9,0,28.8,0c1.5,0,2.8,0.4,3.6,1.1
		c0.8,0.7,2.2,2.3,2.2,4.2C34.6,7.9,32.5,9,29.9,9z M28.8,0.1c-2.8,0-4.6,1.3-4.6,3.6c0,2.4,1.9,3.6,4.7,3.6c2.6,0,4.6-1.1,4.6-3.6
		C33.4,1.3,31.4,0.1,28.8,0.1z M28.8,5.3c-0.5,0-0.9-0.4-0.9-1.6c0-1,0.3-1.5,0.9-1.5c0.5,0,0.9,0.5,0.9,1.5
		C29.7,4.9,29.3,5.3,28.8,5.3z"/>
	<path d="M48.6,1.9V4h-1.2v4.9h-3.7L42,7.4l-0.4-0.4v2h-4.8l-1.6-1.7V5h1.2V3.6l-1.2-1.3V0.1h5.4l1.6,1.6V0.1h4.5L48.6,1.9z
		 M45.6,2.2h1.2v-2h-4.3v2h0.8v1.2l-2.6-3.2h-5.2v2h1.2v2.9h-1.2v2h4.4v-2H39V3.4L42,7.1h3.5V2.2z"/>
	<path d="M53.5,1.8v1.6c0,1.2-1.2,1.8-2.7,1.8l-1.4-1.4V2.9c0.1,0,0.4,0,0.5-0.1l-0.5-0.5V0.1h2.5L53.5,1.8z M51.8,0.2h-2.3v2h1.1
		c0,0.2,0,0.3-0.2,0.5C50.2,3,49.8,3,49.5,3v0.7c0.5,0,1.5-0.1,1.8-0.5c0.3-0.3,0.5-0.8,0.5-1.1V0.2z"/>
	<path d="M65.7,1.9v3.6h-2.5l-0.5-0.5v0.7l1.2,1.2v2.1h-6.1l-1.6-1.7V5.4h-0.3l-1.6-1.6V0.1H64L65.7,1.9z M61.7,3.7h2.2V0.2h-9.5
		v3.5h2.2V2.2h0.9v2.9h-1.2v2H62v-2h-1.2V2.2h0.9V3.7z"/>
	<path d="M80.8,1.9v3.2h-3.2v1.5L77.9,7v1.9h-6.4l-1.6-1.7V5h1.2V3.6l-1.2-1.3V0.1h9.2L80.8,1.9z M76.4,3.3H79V0.2h-9v2h1.2v2.9H70
		v2h6.1v-2h-1.6V4.5h1.4V2.9h-1.4V2.2h1.9V3.3z"/>
	<path d="M92.5,5.5v3.4h-9.3l-1.6-1.7V5h1.2V3.6l-1.2-1.3V0.1h9.2l1.7,1.8v2.8h-0.8L92.5,5.5z M81.7,7.1h9V3.8h-2.6v1.4h-1.9V4.5
		h1.4V2.9h-1.4V2.2h1.9v1.1h2.6V0.2h-9v2h1.2v2.9h-1.2V7.1z"/>
	<path d="M104.4,5.5v3.4h-9.3l-1.6-1.7V5h1.2V3.6l-1.2-1.3V0.1h9.2l1.7,1.8v2.8h-0.8L104.4,5.5z M93.6,7.1h9V3.8H100v1.4h-1.9V4.5
		h1.4V2.9h-1.4V2.2h1.9v1.1h2.6V0.2h-9v2h1.2v2.9h-1.2V7.1z"/>
	<path d="M116.2,5.3v3.6h-9.3l-1.6-1.7V5h1.2V3.6l-1.2-1.3V0.1h5.8l1.7,1.8v1.6h1.6L116.2,5.3z M105.4,7.1h8.9V3.7h-2.3v1.5H110V2.2
		h1.1v-2h-5.6v2h1.2v2.9h-1.2V7.1z"/>
	<path d="M131.4,5.3v3.6h-9.3l-1.6-1.7V5h1.2V3.6l-1.2-1.3V0.1h5.8l1.7,1.8v1.6h1.6L131.4,5.3z M120.6,7.1h8.9V3.7h-2.3v1.5h-2.1
		V2.2h1.1v-2h-5.6v2h1.2v2.9h-1.2V7.1z"/>
	<path d="M139.9,6.9v2h-6.1l-1.6-1.7V5h1.2V3.6l-1.2-1.3V0.1h6l1.7,1.8V4h-1.1v1.8L139.9,6.9z M132.3,7.1h5.7v-2h-1.2V2.2h1.2v-2
		h-5.7v2h1.2v2.9h-1.2V7.1z"/>
	<path d="M154.1,6.8v2.1h-11.7l-1.6-1.7V5h1.2V3.6l-1.2-1.3V0.1h10.8l1.5,1.6V4h-1.4L151,4.6l0.5,0.4h0.8L154.1,6.8z M146.5,7.1h5.8
		v-2h-0.8l-2.3-1.8l1.3-1.2h1v-2h-4.9v2h0.8l-1.9,1.3V2.2h0.8v-2h-5.4v2h1.2v2.9h-1.2v2h5.2v-2h-0.7V3.8l1.8,1.3h-0.7V7.1z"/>
	<path d="M165.7,5.5v3.4h-9.3l-1.6-1.7V5h1.2V3.6l-1.2-1.3V0.1h9.2l1.7,1.8v2.8h-0.8L165.7,5.5z M154.9,7.1h9V3.8h-2.6v1.4h-1.9V4.5
		h1.4V2.9h-1.4V2.2h1.9v1.1h2.6V0.2h-9v2h1.2v2.9h-1.2V7.1z"/>
	<path d="M179.7,1.9v3.2h-0.8l0.7,0.8C179.5,7.4,178,9,175.5,9c-2.5,0-4.4-2.1-5.1-3.4c-0.3-0.5-0.5-1.1-0.5-1.9
		c0-2.2,1.6-3.6,3.8-3.6c0.9,0,1.5,0.3,1.9,0.6V0.1h2.4L179.7,1.9z M175.8,3.9c-0.2,1-0.4,1.3-1.1,1.3c-0.7,0-1-0.5-1-1.6
		c0-1.1,0.4-1.5,1-1.5c0.7,0,0.9,0.4,1.1,1.3h2.1V0.2h-2.2v0.6h0c-0.4-0.5-1.1-0.8-2-0.8c-2.1,0-3.7,1.5-3.7,3.5
		c0,2.3,1.7,3.7,4.3,3.7c2.4,0,3.6-1.5,3.7-3.2L175.8,3.9z"/>
	<path d="M186.2,9c-2.8,0-4.6-2.2-5.4-3.4c-0.3-0.5-0.5-1.1-0.5-1.9c0-2.4,1.9-3.7,4.8-3.7c1.5,0,2.8,0.4,3.6,1.1
		c0.8,0.7,2.2,2.3,2.2,4.2C190.9,7.9,188.8,9,186.2,9z M185.1,0.1c-2.8,0-4.6,1.3-4.6,3.6c0,2.4,1.9,3.6,4.7,3.6
		c2.6,0,4.6-1.1,4.6-3.6C189.7,1.3,187.7,0.1,185.1,0.1z M185.1,5.3c-0.5,0-0.9-0.4-0.9-1.6c0-1,0.3-1.5,0.9-1.5
		c0.5,0,0.9,0.5,0.9,1.5C186,4.9,185.5,5.3,185.1,5.3z"/>
	<path d="M197.2,9c-2.8,0-4.6-2.2-5.4-3.4c-0.3-0.5-0.5-1.1-0.5-1.9c0-2.4,1.9-3.7,4.8-3.7c1.5,0,2.8,0.4,3.6,1.1
		c0.8,0.7,2.2,2.3,2.2,4.2C201.9,7.9,199.8,9,197.2,9z M196.1,0.1c-2.8,0-4.6,1.3-4.6,3.6c0,2.4,1.9,3.6,4.7,3.6
		c2.6,0,4.6-1.1,4.6-3.6C200.7,1.3,198.7,0.1,196.1,0.1z M196.1,5.3c-0.5,0-0.9-0.4-0.9-1.6c0-1,0.3-1.5,0.9-1.5
		c0.5,0,0.9,0.5,0.9,1.5C197,4.9,196.6,5.3,196.1,5.3z"/>
	<path d="M215.9,6.8v2.1h-11.7l-1.6-1.7V5h1.2V3.6l-1.2-1.3V0.1h10.8l1.5,1.6V4h-1.4l-0.7,0.6l0.5,0.4h0.8L215.9,6.8z M208.4,7.1
		h5.8v-2h-0.8L211,3.4l1.3-1.2h1v-2h-4.9v2h0.8l-1.9,1.3V2.2h0.8v-2h-5.4v2h1.2v2.9h-1.2v2h5.2v-2h-0.7V3.8l1.8,1.3h-0.7V7.1z"/>
	<path d="M224.3,6.9v2h-6.1l-1.6-1.7V5h1.2V3.6l-1.2-1.3V0.1h6l1.7,1.8V4h-1.1v1.8L224.3,6.9z M216.8,7.1h5.7v-2h-1.2V2.2h1.2v-2
		h-5.7v2h1.2v2.9h-1.2V7.1z"/>
	<path d="M238.5,1.9V4h-1.2v4.9h-3.7L232,7.4l-0.4-0.4v2h-4.8l-1.6-1.7V5h1.2V3.6l-1.2-1.3V0.1h5.4l1.6,1.6V0.1h4.5L238.5,1.9z
		 M235.5,2.2h1.2v-2h-4.3v2h0.8v1.2l-2.6-3.2h-5.2v2h1.2v2.9h-1.2v2h4.4v-2h-0.9V3.4l3.1,3.8h3.5V2.2z"/>
	<path d="M250,4.8v1.7h-0.9v2.3h-1.5l-0.4-0.5c-0.4,0.3-1.2,0.6-2.5,0.6c-2,0-3.5-1.4-4.5-2.7c-0.5-0.6-1-1.4-1-2.6
		c0-2.2,1.5-3.7,3.8-3.7c0.9,0,1.7,0.3,2.1,0.6V0.1h2.3l1.7,1.8v1.8L250,4.8z M247.3,4.8h1V3.3h-4.5v1.5h0.9
		c-0.1,0.2-0.3,0.4-0.9,0.4c-0.6,0-1-0.4-1-1.6c0-1.2,0.4-1.5,1.1-1.5c0.7,0,0.9,0.5,1.1,1h2.1V0.2H245v0.6h0
		c-0.4-0.4-1.3-0.7-2.2-0.7c-2.2,0-3.6,1.5-3.6,3.6c0,2.3,1.8,3.6,4,3.6c1.3,0,2.1-0.4,2.5-0.8l0.4,0.6h1.3V4.8z"/>
	<polygon class="st0" points="105.4,7.1 114.4,7.1 114.4,3.7 112.1,3.7 112.1,5.2 110,5.2 110,2.2 111.1,2.2 111.1,0.2 105.4,0.2 
		105.4,2.2 106.7,2.2 106.7,5.2 105.4,5.2 	"/>
	<polygon class="st0" points="93.6,7.1 102.6,7.1 102.6,3.8 100,3.8 100,5.2 98.1,5.2 98.1,4.5 99.5,4.5 99.5,2.9 98.1,2.9 
		98.1,2.2 100,2.2 100,3.3 102.6,3.3 102.6,0.2 93.6,0.2 93.6,2.2 94.8,2.2 94.8,5.2 93.6,5.2 	"/>
	<polygon class="st0" points="81.7,7.1 90.7,7.1 90.7,3.8 88.2,3.8 88.2,5.2 86.3,5.2 86.3,4.5 87.6,4.5 87.6,2.9 86.3,2.9 
		86.3,2.2 88.2,2.2 88.2,3.3 90.7,3.3 90.7,0.2 81.7,0.2 81.7,2.2 82.9,2.2 82.9,5.2 81.7,5.2 	"/>
	<polygon class="st0" points="76.4,3.3 79,3.3 79,0.2 70,0.2 70,2.2 71.2,2.2 71.2,5.2 70,5.2 70,7.1 76.2,7.1 76.2,5.2 74.5,5.2 
		74.5,4.5 75.9,4.5 75.9,2.9 74.5,2.9 74.5,2.2 76.4,2.2 	"/>
	<polygon class="st0" points="61.7,3.7 63.9,3.7 63.9,0.2 54.4,0.2 54.4,3.7 56.6,3.7 56.6,2.2 57.5,2.2 57.5,5.2 56.3,5.2 
		56.3,7.1 62,7.1 62,5.2 60.8,5.2 60.8,2.2 61.7,2.2 	"/>
	<path class="st0" d="M51.8,0.2h-2.3v2h1.1c0,0.2,0,0.3-0.2,0.5C50.2,3,49.8,3,49.5,3v0.7c0.5,0,1.5-0.1,1.8-0.5
		c0.3-0.3,0.5-0.8,0.5-1.1V0.2z"/>
	<polygon class="st0" points="45.6,2.2 46.8,2.2 46.8,0.2 42.5,0.2 42.5,2.2 43.3,2.2 43.3,3.4 40.7,0.2 35.4,0.2 35.4,2.2 
		36.7,2.2 36.7,5.2 35.4,5.2 35.4,7.1 39.9,7.1 39.9,5.2 39,5.2 39,3.4 42,7.1 45.6,7.1 	"/>
	<path class="st0" d="M28.8,0.1c-2.8,0-4.6,1.3-4.6,3.6c0,2.4,1.9,3.6,4.7,3.6c2.6,0,4.6-1.1,4.6-3.6C33.4,1.3,31.4,0.1,28.8,0.1z
		 M28.8,5.3c-0.5,0-0.9-0.4-0.9-1.6c0-1,0.3-1.5,0.9-1.5c0.5,0,0.9,0.5,0.9,1.5C29.7,4.9,29.3,5.3,28.8,5.3z"/>
	<path class="st0" d="M18.1,0.2h-5.8v2h1.2v2.9h-1.2v2h5.9c2.1,0,3.8-1.1,3.8-3.5C21.9,1.3,20,0.2,18.1,0.2z M17.2,5.2h-0.4V2.2h0.4
		c0.8,0,1.2,0.5,1.2,1.4C18.3,4.6,18.1,5.2,17.2,5.2z"/>
	<polygon class="st0" points="0.1,7.1 5.9,7.1 5.9,5.2 4.7,5.2 4.7,2.2 5.9,2.2 5.9,0.2 0.1,0.2 0.1,2.2 1.3,2.2 1.3,5.2 0.1,5.2 	
		"/>
	<polygon class="st0" points="120.6,7.1 129.6,7.1 129.6,3.7 127.3,3.7 127.3,5.2 125.2,5.2 125.2,2.2 126.3,2.2 126.3,0.2 
		120.6,0.2 120.6,2.2 121.8,2.2 121.8,5.2 120.6,5.2 	"/>
	<polygon class="st0" points="132.3,7.1 138.1,7.1 138.1,5.2 136.8,5.2 136.8,2.2 138.1,2.2 138.1,0.2 132.3,0.2 132.3,2.2 
		133.5,2.2 133.5,5.2 132.3,5.2 	"/>
	<polygon class="st0" points="146.5,7.1 152.3,7.1 152.3,5.2 151.5,5.2 149.2,3.4 150.5,2.2 151.5,2.2 151.5,0.2 146.6,0.2 
		146.6,2.2 147.4,2.2 145.4,3.6 145.4,2.2 146.3,2.2 146.3,0.2 140.9,0.2 140.9,2.2 142.1,2.2 142.1,5.2 140.9,5.2 140.9,7.1 
		146.2,7.1 146.2,5.2 145.4,5.2 145.4,3.8 147.2,5.2 146.5,5.2 	"/>
	<polygon class="st0" points="154.9,7.1 163.9,7.1 163.9,3.8 161.3,3.8 161.3,5.2 159.4,5.2 159.4,4.5 160.8,4.5 160.8,2.9 
		159.4,2.9 159.4,2.2 161.3,2.2 161.3,3.3 163.9,3.3 163.9,0.2 154.9,0.2 154.9,2.2 156.1,2.2 156.1,5.2 154.9,5.2 	"/>
	<path class="st0" d="M175.8,3.9c-0.2,1-0.4,1.3-1.1,1.3c-0.7,0-1-0.5-1-1.6c0-1.1,0.4-1.5,1-1.5c0.7,0,0.9,0.4,1.1,1.3h2.1V0.2
		h-2.2v0.6h0c-0.4-0.5-1.1-0.8-2-0.8c-2.1,0-3.7,1.5-3.7,3.5c0,2.3,1.7,3.7,4.3,3.7c2.4,0,3.6-1.5,3.7-3.2L175.8,3.9z"/>
	<path class="st0" d="M185.1,0.1c-2.8,0-4.6,1.3-4.6,3.6c0,2.4,1.9,3.6,4.7,3.6c2.6,0,4.6-1.1,4.6-3.6
		C189.7,1.3,187.7,0.1,185.1,0.1z M185.1,5.3c-0.5,0-0.9-0.4-0.9-1.6c0-1,0.3-1.5,0.9-1.5c0.5,0,0.9,0.5,0.9,1.5
		C186,4.9,185.5,5.3,185.1,5.3z"/>
	<path class="st0" d="M196.1,0.1c-2.8,0-4.6,1.3-4.6,3.6c0,2.4,1.9,3.6,4.7,3.6c2.6,0,4.6-1.1,4.6-3.6
		C200.7,1.3,198.7,0.1,196.1,0.1z M196.1,5.3c-0.5,0-0.9-0.4-0.9-1.6c0-1,0.3-1.5,0.9-1.5c0.5,0,0.9,0.5,0.9,1.5
		C197,4.9,196.6,5.3,196.1,5.3z"/>
	<polygon class="st0" points="208.4,7.1 214.1,7.1 214.1,5.2 213.3,5.2 211,3.4 212.4,2.2 213.4,2.2 213.4,0.2 208.5,0.2 208.5,2.2 
		209.2,2.2 207.3,3.6 207.3,2.2 208.1,2.2 208.1,0.2 202.8,0.2 202.8,2.2 204,2.2 204,5.2 202.8,5.2 202.8,7.1 208,7.1 208,5.2 
		207.3,5.2 207.3,3.8 209.1,5.2 208.4,5.2 	"/>
	<polygon class="st0" points="216.8,7.1 222.5,7.1 222.5,5.2 221.3,5.2 221.3,2.2 222.5,2.2 222.5,0.2 216.8,0.2 216.8,2.2 218,2.2 
		218,5.2 216.8,5.2 	"/>
	<polygon class="st0" points="235.5,2.2 236.7,2.2 236.7,0.2 232.4,0.2 232.4,2.2 233.2,2.2 233.2,3.4 230.6,0.2 225.4,0.2 
		225.4,2.2 226.6,2.2 226.6,5.2 225.4,5.2 225.4,7.1 229.8,7.1 229.8,5.2 228.9,5.2 228.9,3.4 231.9,7.1 235.5,7.1 	"/>
	<path class="st0" d="M247.3,4.8h1V3.3h-4.5v1.5h0.9c-0.1,0.2-0.3,0.4-0.9,0.4c-0.6,0-1-0.4-1-1.6c0-1.2,0.4-1.5,1.1-1.5
		c0.7,0,0.9,0.5,1.1,1h2.1V0.2H245v0.6h0c-0.4-0.4-1.3-0.7-2.2-0.7c-2.2,0-3.6,1.5-3.6,3.6c0,2.3,1.8,3.6,4,3.6
		c1.3,0,2.1-0.4,2.5-0.8l0.4,0.6h1.3V4.8z"/>
</g>
</svg>
